<svg xmlns="http://www.w3.org/2000/svg" xmlns:xlink="http://www.w3.org/1999/xlink" version="1.1" width="1000" height="1000" viewBox="0 0 1000 1000" xml:space="preserve">
<desc>Created with Fabric.js 3.5.0</desc>
<defs>
</defs>
<rect x="0" y="0" width="100%" height="100%" fill="none"/>
<g transform="matrix(0 1.1364 -1.1364 0 499.9855 500.0145)" id="473108">

		<g transform="matrix(25 0 0 25 -102.5 6.25)" id="Camada_1">
<path style="stroke: none; stroke-width: 1; stroke-dasharray: none; stroke-linecap: butt; stroke-dashoffset: 0; stroke-linejoin: miter; stroke-miterlimit: 4; is-custom-font: none; font-file-url: none; fill: red; fill-rule: nonzero; opacity: 1;" transform=" translate(-11.9, -16.25)" d="M 19.8 26.1 h -0.2 c -2.4 0 -4.8 0 -7.2 0 c -0.3 0 -0.5 -0.1 -0.6 -0.3 c -2.5 -3.2 -5.1 -6.3 -7.6 -9.5 C 4.1 16.1 4 16 4 15.8 c 0 -3.1 0 -6.1 0 -9.2 c 0 -0.1 0 -0.2 0.1 -0.2 h 0.1 c 5.2 6.5 10.4 13 15.5 19.5 c 0 0 0 0.1 0.1 0.1 L 19.8 26.1 L 19.8 26.1 z" stroke-linecap="round"/>
</g>
		<g transform="matrix(25 0 0 25 171.9823 -77.5)" id="Camada_1">
<path style="stroke: none; stroke-width: 1; stroke-dasharray: none; stroke-linecap: butt; stroke-dashoffset: 0; stroke-linejoin: miter; stroke-miterlimit: 4; is-custom-font: none; font-file-url: none; fill: red; fill-rule: nonzero; opacity: 1;" transform=" translate(-22.8793, -12.9)" d="M 27.8 16.3 c -0.7 0.9 -1.5 1.8 -2.2 2.8 c -0.2 0.2 -0.4 0.3 -0.6 0.3 c -2.4 0 -4.8 0 -7.1 0 c 0 0 -0.1 0 -0.1 0 c -0.1 0 -0.2 -0.1 -0.1 -0.2 c 0 0 0 -0.1 0.1 -0.1 c 2.4 -3 4.7 -5.9 7.1 -8.9 c 1 -1.2 2 -2.5 2.9 -3.7 c 0 -0.1 0.1 -0.1 0.2 -0.1 c 0 0 0.1 0 0.1 0 c 0 0.1 0 0.1 0 0.2 c 0 3 0 6.1 0 9.1 C 28 16 27.9 16.2 27.8 16.3 L 27.8 16.3 z" stroke-linecap="round"/>
</g>
</g>
</svg>